<?xml version="1.0" encoding="UTF-8"?>
<!DOCTYPE svg PUBLIC "-//W3C//DTD SVG 1.1//EN" "http://www.w3.org/Graphics/SVG/1.1/DTD/svg11.dtd">
<!-- Creator: CorelDRAW -->
<svg xmlns="http://www.w3.org/2000/svg" xml:space="preserve" width="4.244mm" height="4.0158mm" version="1.1" style="shape-rendering:geometricPrecision; text-rendering:geometricPrecision; image-rendering:optimizeQuality; fill-rule:evenodd; clip-rule:evenodd"
viewBox="0 0 53.78 50.89"
 xmlns:xlink="http://www.w3.org/1999/xlink"
 xmlns:xodm="http://www.corel.com/coreldraw/odm/2003">
 <defs>
  <style type="text/css">
   <![CDATA[
    .fil0 {fill:none}
    .fil1 {fill:black}
   ]]>
  </style>
 </defs>
 <g id="Слой_x0020_1">
  <metadata id="CorelCorpID_0Corel-Layer"/>
  <line class="fil0" x1="-0" y1="8.65" x2="-0" y2= "42.51" />
  <path class="fil0" d="M53.78 8.78l0 15.33m0 2.59l0 15.48"/>
  <path class="fil0" d="M50.76 13.25l0 8.21m0 7.76l0 7.84"/>
  <path class="fil0" d="M40.98 15.37l0 10.37m0 3.41l0 5.15"/>
  <path class="fil0" d="M37.69 8.78l0 2m0 1.51l0 24.66m0 1.66l0 3.13"/>
  <path class="fil0" d="M16.36 12.16l0 3.27m0 11l0 10.76"/>
  <line class="fil0" x1="12.89" y1="28.79" x2="12.89" y2= "34.47" />
  <path class="fil0" d="M3.38 13.19l0 12.69m0 3.8l0 7.36"/>
  <path class="fil0" d="M32.8 8.4l0 4.09m0 24.21l0 5.6"/>
  <path class="fil0" d="M36.09 3.85l0 8.36m0 24.72l0 10.16"/>
  <path class="fil0" d="M21.16 8.4l0 14.69m0 3.15l0 16.06"/>
  <line class="fil0" x1="17.96" y1="3.85" x2="17.96" y2= "47.04" />
  <polyline class="fil0" points="21.16,26.24 26.99,26.24 26.99,23.09 21.16,23.09 "/>
  <path class="fil0" d="M3.38 37.03c3.33,-1.52 6.5,-2.38 9.51,-2.57"/>
  <path class="fil0" d="M3.38 25.88c2.26,-1.52 4.38,-2.63 6.36,-3.33"/>
  <path class="fil0" d="M40.98 34.3c3.15,0.33 6.41,1.25 9.78,2.76"/>
  <path class="fil0" d="M40.98 25.73c2.73,-1.78 5.99,-3.2 9.78,-4.28"/>
  <path class="fil0" d="M40.98 15.37c3.62,-0.36 6.88,-1.07 9.78,-2.12"/>
  <path class="fil0" d="M53.78 26.7c-1.66,-0.05 -3.09,-0.53 -4.32,-1.44 1.23,-0.61 2.67,-0.99 4.32,-1.14"/>
  <path class="fil0" d="M40.98 29.14c1.66,-0.48 3,-1.23 4.02,-2.27 1.35,1.07 3.27,1.85 5.75,2.34"/>
  <path class="fil0" d="M37.69 36.96c6.11,0.55 11.48,2.29 16.09,5.22"/>
  <path class="fil0" d="M37.69 12.3c5.18,-0.07 10.54,-1.25 16.09,-3.52"/>
  <path class="fil0" d="M3.38 13.19c1.96,0.97 8.67,2.19 12.98,2.23"/>
  <path class="fil0" d="M-0 8.65c4.16,2.18 9.62,3.35 16.36,3.51"/>
  <path class="fil0" d="M12.29 25.32c1.19,0.72 2.54,1.1 4.07,1.11"/>
  <path class="fil0" d="M-0 42.51c4.18,-3.23 9.63,-5.01 16.36,-5.33"/>
  <path class="fil0" d="M41.79 7.4c3.47,-2.1 7.11,-1.97 10.92,0.4 -5.45,2.03 -10.45,3.03 -15.01,2.99"/>
  <path class="fil0" d="M37.69 10.78c-0.03,-3.3 0.1,-6.02 0.39,-8.15 1.69,0.67 2.92,2.26 3.71,4.77"/>
  <path class="fil0" d="M12.16 7.4c-3.47,-2.1 -7.11,-1.97 -10.92,0.4 5.45,2.03 10.46,3.03 15.02,2.99"/>
  <path class="fil0" d="M16.25 10.78c0.03,-3.3 -0.1,-6.02 -0.39,-8.15 -1.69,0.67 -2.92,2.26 -3.71,4.77"/>
  <path class="fil0" d="M32.8 36.7c2.19,0.16 3.29,0.24 3.29,0.24"/>
  <path class="fil0" d="M32.8 12.49c2.19,-0.18 3.29,-0.27 3.29,-0.27"/>
  <path class="fil0" d="M38.56 48.37c2.16,-1.74 3.17,-3.84 3.02,-6.3 3.9,2.68 7.84,3.2 11.83,1.56 -5.49,-3.09 -10.73,-4.75 -15.71,-5 -0.12,3.84 0.17,7.09 0.87,9.74z"/>
  <path class="fil0" d="M15.49 48.37c-2.16,-1.74 -3.17,-3.84 -3.02,-6.3 -3.9,2.68 -7.84,3.2 -11.83,1.56 5.49,-3.09 10.73,-4.75 15.71,-5 0.12,3.84 -0.17,7.09 -0.87,9.74z"/>
  <path class="fil0" d="M3.38 29.68c1.27,-1.02 2.79,-1.93 4.55,-2.74 1.65,0.94 3.3,1.56 4.97,1.85"/>
  <path class="fil0" d="M21.16 8.4c0.41,-2.9 2.89,-5.05 5.82,-5.05 2.93,0 5.41,2.15 5.82,5.05"/>
  <path class="fil0" d="M21.16 42.3c0.41,2.9 2.89,5.05 5.82,5.05 2.93,0 5.41,-2.15 5.82,-5.05"/>
  <path class="fil0" d="M21.16 48.58c3.27,3.09 8.38,3.09 11.65,0"/>
  <path class="fil0" d="M21.16 2.32c3.27,-3.09 8.38,-3.09 11.65,0"/>
  <path class="fil0" d="M32.8 2.32c1.29,-2.05 2.9,-2.67 4.86,-1.89 -0.82,0.69 -1.34,1.83 -1.57,3.43"/>
  <path class="fil0" d="M21.16 2.32c-1.29,-2.05 -2.9,-2.67 -4.86,-1.89 0.82,0.69 1.43,1.83 1.66,3.43"/>
  <path class="fil0" d="M21.16 48.58c-1.29,2.05 -2.9,2.68 -4.86,1.89 0.82,-0.69 1.43,-1.83 1.66,-3.43"/>
  <path class="fil0" d="M32.8 48.58c1.29,2.05 2.9,2.68 4.86,1.89 -0.82,-0.69 -1.34,-1.77 -1.57,-3.37"/>
  <path class="fil0" d="M12.29 25.32c-1.11,-0.78 -1.96,-1.7 -2.55,-2.76"/>
  <path class="fil1" d="M12.29 25.32c-1.11,-0.78 -1.96,-1.7 -2.55,-2.76 -1.98,0.69 -4.1,1.8 -6.36,3.33l0 -12.69c1.96,0.97 8.67,2.19 12.98,2.23l0 -3.27c-6.74,-0.16 -12.19,-1.34 -16.36,-3.51l0 33.87c4.18,-3.23 9.63,-5.01 16.36,-5.33l0 -10.76c-1.52,-0.02 -2.88,-0.39 -4.07,-1.11zm-4.37 1.62c1.65,0.94 3.3,1.56 4.97,1.85l0 5.68c-3.01,0.19 -6.18,1.05 -9.51,2.57l0 -7.36c1.27,-1.02 2.79,-1.93 4.55,-2.74z"/>
  <path class="fil1" d="M17.96 3.85l0 43.19c-0.23,1.6 -0.84,2.74 -1.66,3.43 1.95,0.79 3.57,0.16 4.86,-1.89 3.27,3.09 8.38,3.09 11.65,0 1.29,2.05 2.9,2.68 4.86,1.89 -0.82,-0.69 -1.34,-1.77 -1.57,-3.37l0 -10.16c0,0 -1.1,-0.08 -3.29,-0.24l0 5.6c-0.41,2.9 -2.89,5.05 -5.82,5.05 -2.93,0 -5.41,-2.15 -5.82,-5.05l0 -16.06 5.84 0 0 -3.15 -5.84 0 0 -14.69c0.41,-2.9 2.89,-5.05 5.82,-5.05 2.93,0 5.41,2.15 5.82,5.05l0 4.09c2.19,-0.18 3.29,-0.27 3.29,-0.27l0 -8.36c0.23,-1.6 0.75,-2.74 1.57,-3.43 -1.95,-0.79 -3.57,-0.16 -4.86,1.89 -3.27,-3.09 -8.38,-3.09 -11.65,0 -1.29,-2.05 -2.9,-2.67 -4.86,-1.89 0.82,0.69 1.43,1.83 1.66,3.43z"/>
  <path class="fil1" d="M37.69 12.3l0 24.66c6.11,0.55 11.48,2.29 16.09,5.22l0 -15.48c-1.66,-0.05 -3.09,-0.53 -4.32,-1.44 1.23,-0.61 2.67,-0.99 4.32,-1.14l0 -15.33c-5.55,2.27 -10.91,3.44 -16.09,3.52zm3.29 13.44l0 -10.37c3.62,-0.36 6.88,-1.07 9.78,-2.12l0 8.21c-3.79,1.08 -7.04,2.5 -9.78,4.28zm0 8.56l0 -5.15c1.66,-0.48 3,-1.23 4.02,-2.27 1.35,1.07 3.27,1.85 5.75,2.34l0 7.84c-3.37,-1.51 -6.63,-2.43 -9.78,-2.76z"/>
  <path class="fil1" d="M1.24 7.8c5.45,2.03 10.46,3.03 15.02,2.99 0.03,-3.3 -0.1,-6.02 -0.39,-8.15 -1.69,0.67 -2.92,2.26 -3.71,4.77 -3.47,-2.1 -7.11,-1.97 -10.92,0.4z"/>
  <path class="fil1" d="M37.69 8.78l0 2c4.56,0.04 9.57,-0.95 15.01,-2.99 -3.81,-2.36 -7.45,-2.5 -10.92,-0.4 -0.78,-2.51 -2.01,-4.1 -3.71,-4.77 -0.23,1.69 -0.36,3.74 -0.39,6.15z"/>
  <path class="fil1" d="M53.41 43.63c-5.49,-3.09 -10.73,-4.75 -15.71,-5l0 3.13c0.08,2.51 0.37,4.71 0.87,6.61 2.16,-1.74 3.17,-3.84 3.02,-6.3 3.9,2.68 7.84,3.2 11.83,1.56z"/>
  <path class="fil1" d="M15.49 48.37c0.69,-2.65 0.98,-5.9 0.87,-9.74 -4.98,0.25 -10.22,1.92 -15.71,5 3.99,1.64 7.94,1.12 11.83,-1.56 -0.15,2.46 0.86,4.56 3.02,6.3z"/>
 </g>
</svg>
